<svg width="2240" height="407" viewBox="0 0 2240 407" fill="none" xmlns="http://www.w3.org/2000/svg">
<path d="M77.306 191.253C77.306 175.707 68.123 162.312 54.889 156.176C71.036 81.293 137.765 25.001 217.405 25.001C251.793 25.001 284.788 35.406 312.823 55.09C337.064 72.111 356.099 94.916 368.377 121.515C371.119 127.456 378.019 130.229 384.135 127.904C390.888 125.337 394.098 117.581 391.07 111.022C376.945 80.425 355.058 54.198 327.189 34.629C294.924 11.974 256.961 0 217.405 0C124.83 0 47.415 66.119 29.881 153.612C12.762 157.586 0 172.924 0 191.252C0 212.599 17.305 229.904 38.652 229.904C59.999 229.904 77.304 212.599 77.304 191.252L77.306 191.253Z" fill="#7F5AF0"/>
<path d="M396.158 152.601C374.811 152.601 357.506 169.906 357.506 191.253C357.506 206.799 366.689 220.194 379.923 226.33C363.776 301.213 297.047 357.505 217.407 357.505C183.369 357.505 150.652 347.294 122.794 327.977C98.7561 311.309 79.7381 288.933 67.2851 262.799C64.4691 256.889 57.5391 254.192 51.4481 256.592C44.7291 259.239 41.6081 267.03 44.7141 273.549C59.0371 303.617 80.9081 329.355 108.548 348.521C140.61 370.753 178.253 382.505 217.407 382.505C309.983 382.505 387.398 316.386 404.931 228.893C422.05 224.919 434.812 209.581 434.812 191.253C434.812 169.906 417.507 152.601 396.16 152.601H396.158Z" fill="#7F5AF0"/>
<path d="M217.406 223.608C234.723 223.608 248.761 209.57 248.761 192.253C248.761 174.936 234.723 160.898 217.406 160.898C200.089 160.898 186.051 174.936 186.051 192.253C186.051 209.57 200.089 223.608 217.406 223.608Z" fill="#7F5AF0"/>
<path d="M174.492 97.6601C179.892 95.1871 182.597 89.083 180.682 83.461C178.485 77.011 171.194 73.8781 164.997 76.7101C120.55 97.0221 91.4785 141.584 91.4785 191.252C91.4785 250.323 132.366 300.016 187.323 313.539C191.138 326.554 203.159 336.061 217.408 336.061C234.725 336.061 248.763 322.023 248.763 304.706C248.763 287.389 234.725 273.351 217.408 273.351C205.269 273.351 194.749 280.254 189.538 290.344C146.28 278.162 114.479 238.352 114.479 191.252C114.479 150.68 138.207 114.278 174.492 97.6601Z" fill="#7F5AF0"/>
<path d="M259.489 285.227C254.067 287.648 251.31 293.731 253.175 299.369C255.315 305.84 262.579 309.033 268.805 306.258C313.859 286.177 343.336 241.428 343.336 191.253C343.336 132.288 302.595 82.6662 247.787 69.0382C244.324 55.4882 232.037 45.4702 217.408 45.4702C200.091 45.4702 186.053 59.5082 186.053 76.8252C186.053 94.1422 200.091 108.18 217.408 108.18C229.203 108.18 239.472 101.664 244.825 92.0392C288.313 104.071 320.337 143.99 320.337 191.254C320.337 232.243 296.276 268.801 259.491 285.228L259.489 285.227Z" fill="#7F5AF0"/>
<path d="M693.5 282C708.833 282 722.75 279.75 735.25 275.25C747.917 270.75 757.333 266.333 763.5 262L795.5 325.5C787.667 332.167 774.25 338.917 755.25 345.75C736.417 352.583 714 356 688 356C663.667 356 640.833 351.75 619.5 343.25C598.167 334.75 579.333 322.833 563 307.5C546.833 292 534.083 273.917 524.75 253.25C515.583 232.417 511 209.833 511 185.5C511 161.167 515.583 138.583 524.75 117.75C533.917 96.75 546.583 78.5 562.75 63C579.083 47.5 597.917 35.5 619.25 27C640.75 18.3333 663.667 14 688 14C714 14 736.417 17.4166 755.25 24.25C774.25 31.0833 787.667 37.8333 795.5 44.5L763.5 108C757.333 103.5 747.917 99.0833 735.25 94.75C722.75 90.25 708.833 88 693.5 88C676.5 88 661.667 90.6666 649 96C636.333 101.167 625.75 108.333 617.25 117.5C608.75 126.667 602.417 137 598.25 148.5C594.083 160 592 172.083 592 184.75C592 197.583 594.083 209.833 598.25 221.5C602.417 233 608.75 243.333 617.25 252.5C625.75 261.667 636.333 268.917 649 274.25C661.667 279.417 676.5 282 693.5 282ZM917.266 350H841.016V5.99999H917.266V350ZM1125.52 350V316.75C1124.02 320.083 1120.18 324.917 1114.02 331.25C1108.02 337.583 1100.02 343.333 1090.02 348.5C1080.02 353.5 1068.35 356 1055.02 356C1035.02 356 1017.52 351.167 1002.52 341.5C987.516 331.667 975.849 318.583 967.516 302.25C959.182 285.75 955.016 267.5 955.016 247.5C955.016 227.5 959.182 209.333 967.516 193C975.849 176.5 987.516 163.333 1002.52 153.5C1017.52 143.667 1035.02 138.75 1055.02 138.75C1067.85 138.75 1079.1 140.833 1088.77 145C1098.43 149 1106.27 153.833 1112.27 159.5C1118.27 165 1122.43 170.083 1124.77 174.75V144.75H1200.27V350H1125.52ZM1029.52 247.5C1029.52 256.833 1031.68 265.25 1036.02 272.75C1040.35 280.083 1046.1 285.833 1053.27 290C1060.6 294.167 1068.68 296.25 1077.52 296.25C1086.68 296.25 1094.77 294.167 1101.77 290C1108.77 285.833 1114.27 280.083 1118.27 272.75C1122.43 265.25 1124.52 256.833 1124.52 247.5C1124.52 238.167 1122.43 229.833 1118.27 222.5C1114.27 215 1108.77 209.167 1101.77 205C1094.77 200.667 1086.68 198.5 1077.52 198.5C1068.68 198.5 1060.6 200.667 1053.27 205C1046.1 209.167 1040.35 215 1036.02 222.5C1031.68 229.833 1029.52 238.167 1029.52 247.5ZM1317.99 350H1241.99V144.75H1317.99V176.5H1316.74C1318.08 172.667 1321.33 167.833 1326.49 162C1331.66 156 1338.91 150.667 1348.24 146C1357.58 141.167 1368.99 138.75 1382.49 138.75C1391.99 138.75 1400.74 140.25 1408.74 143.25C1416.74 146.083 1422.58 148.833 1426.24 151.5L1396.74 213.25C1394.41 210.417 1390.24 207.5 1384.24 204.5C1378.41 201.333 1371.08 199.75 1362.24 199.75C1352.08 199.75 1343.66 202.333 1336.99 207.5C1330.49 212.667 1325.66 218.917 1322.49 226.25C1319.49 233.583 1317.99 240.5 1317.99 247V350ZM1449.23 350V144.75H1525.23V350H1449.23ZM1488.23 102.5C1476.23 102.5 1466.07 98.3333 1457.73 90C1449.4 81.5 1445.23 71.4167 1445.23 59.75C1445.23 48.0833 1449.4 38 1457.73 29.5C1466.23 20.8333 1476.4 16.5 1488.23 16.5C1496.07 16.5 1503.23 18.5 1509.73 22.5C1516.23 26.3333 1521.48 31.5 1525.48 38C1529.48 44.5 1531.48 51.75 1531.48 59.75C1531.48 71.4167 1527.23 81.5 1518.73 90C1510.23 98.3333 1500.07 102.5 1488.23 102.5ZM1559.09 144.75H1640.34L1689.84 281L1739.59 144.75H1820.34L1734.34 350H1645.34L1559.09 144.75ZM1853.53 350V144.75H1929.53V350H1853.53ZM1892.53 102.5C1880.53 102.5 1870.36 98.3333 1862.03 90C1853.7 81.5 1849.53 71.4167 1849.53 59.75C1849.53 48.0833 1853.7 38 1862.03 29.5C1870.53 20.8333 1880.7 16.5 1892.53 16.5C1900.36 16.5 1907.53 18.5 1914.03 22.5C1920.53 26.3333 1925.78 31.5 1929.78 38C1933.78 44.5 1935.78 51.75 1935.78 59.75C1935.78 71.4167 1931.53 81.5 1923.03 90C1914.53 98.3333 1904.36 102.5 1892.53 102.5ZM2086.39 356C2063.89 356 2043.89 351.417 2026.39 342.25C2009.06 332.917 1995.39 320.167 1985.39 304C1975.56 287.667 1970.64 269 1970.64 248C1970.64 227 1975.56 208.333 1985.39 192C1995.39 175.5 2009.06 162.5 2026.39 153C2043.89 143.5 2063.89 138.75 2086.39 138.75C2108.89 138.75 2128.72 143.5 2145.89 153C2163.06 162.5 2176.47 175.5 2186.14 192C2195.81 208.333 2200.64 227 2200.64 248C2200.64 269 2195.81 287.667 2186.14 304C2176.47 320.167 2163.06 332.917 2145.89 342.25C2128.72 351.417 2108.89 356 2086.39 356ZM2086.39 293.5C2095.06 293.5 2102.56 291.583 2108.89 287.75C2115.22 283.917 2120.14 278.5 2123.64 271.5C2127.14 264.5 2128.89 256.583 2128.89 247.75C2128.89 238.75 2127.14 230.75 2123.64 223.75C2120.14 216.75 2115.22 211.25 2108.89 207.25C2102.56 203.25 2095.06 201.25 2086.39 201.25C2077.72 201.25 2070.14 203.25 2063.64 207.25C2057.31 211.25 2052.31 216.75 2048.64 223.75C2045.14 230.75 2043.39 238.75 2043.39 247.75C2043.39 256.583 2045.14 264.5 2048.64 271.5C2052.31 278.5 2057.31 283.917 2063.64 287.75C2070.14 291.583 2077.72 293.5 2086.39 293.5Z" fill="#7F5AF0"/>
</svg>
